<svg width="621" height="585" viewBox="0 0 621 585" fill="none" xmlns="http://www.w3.org/2000/svg">
<g filter="url(#filter0_i_89_19908)">
<circle cx="261.375" cy="336.125" r="180.375" fill="url(#paint0_linear_89_19908)"/>
</g>
<path d="M409.875 307.4C414.249 308.019 418.297 304.974 418.916 300.599C419.535 296.225 416.49 292.177 412.115 291.558C407.741 290.939 403.693 293.984 403.074 298.359C402.455 302.733 405.5 306.781 409.875 307.4Z" stroke="#E41165" stroke-width="2"/>
<path d="M451.461 313.282C455.835 313.901 459.883 310.856 460.502 306.481C461.121 302.107 458.076 298.058 453.701 297.44C449.327 296.821 445.279 299.866 444.66 304.24C444.041 308.615 447.086 312.663 451.461 313.282Z" stroke="#E41165" stroke-width="2"/>
<path d="M493.047 319.164C497.421 319.783 501.469 316.738 502.088 312.363C502.707 307.989 499.662 303.941 495.287 303.322C490.913 302.703 486.865 305.748 486.246 310.123C485.627 314.497 488.672 318.545 493.047 319.164Z" stroke="#E41165" stroke-width="2"/>
<path d="M383.76 342.084C388.134 342.703 392.182 339.658 392.801 335.283C393.42 330.909 390.375 326.861 386 326.242C381.626 325.623 377.578 328.668 376.959 333.043C376.34 337.417 379.385 341.466 383.76 342.084Z" stroke="#E41165" stroke-width="2"/>
<path d="M425.346 347.966C429.72 348.585 433.768 345.54 434.387 341.165C435.006 336.791 431.961 332.743 427.586 332.124C423.212 331.505 419.164 334.55 418.545 338.925C417.926 343.299 420.971 347.347 425.346 347.966Z" stroke="#E41165" stroke-width="2"/>
<path d="M466.933 353.848C471.307 354.467 475.355 351.422 475.974 347.047C476.593 342.673 473.548 338.625 469.173 338.006C464.799 337.387 460.751 340.432 460.132 344.807C459.513 349.181 462.558 353.229 466.933 353.848Z" stroke="#E41165" stroke-width="2"/>
<path d="M358.636 376.909C363.01 377.528 367.058 374.483 367.677 370.108C368.296 365.734 365.251 361.686 360.876 361.067C356.502 360.448 352.454 363.493 351.835 367.868C351.216 372.242 354.261 376.29 358.636 376.909Z" stroke="#E41165" stroke-width="2"/>
<path d="M400.222 382.791C404.596 383.41 408.644 380.365 409.263 375.99C409.882 371.616 406.837 367.568 402.462 366.949C398.088 366.33 394.04 369.375 393.421 373.75C392.802 378.124 395.847 382.172 400.222 382.791Z" stroke="#E41165" stroke-width="2"/>
<path d="M441.808 388.673C446.182 389.292 450.23 386.247 450.849 381.872C451.468 377.498 448.423 373.45 444.048 372.831C439.674 372.212 435.626 375.257 435.007 379.632C434.388 384.006 437.433 388.054 441.808 388.673Z" stroke="#E41165" stroke-width="2"/>
<path d="M332.521 411.593C336.895 412.212 340.943 409.167 341.562 404.792C342.181 400.418 339.136 396.37 334.761 395.751C330.387 395.132 326.339 398.177 325.72 402.552C325.101 406.926 328.146 410.974 332.521 411.593Z" stroke="#E41165" stroke-width="2"/>
<path d="M374.107 417.475C378.481 418.094 382.529 415.049 383.148 410.674C383.767 406.3 380.722 402.252 376.347 401.633C371.973 401.014 367.925 404.059 367.306 408.434C366.687 412.808 369.732 416.856 374.107 417.475Z" stroke="#E41165" stroke-width="2"/>
<path d="M415.693 423.357C420.067 423.976 424.115 420.931 424.734 416.556C425.353 412.182 422.308 408.134 417.933 407.515C413.559 406.896 409.511 409.941 408.892 414.316C408.273 418.69 411.318 422.738 415.693 423.357Z" stroke="#E41165" stroke-width="2"/>
<path d="M306.406 446.278C310.78 446.897 314.828 443.852 315.447 439.477C316.066 435.103 313.021 431.055 308.646 430.436C304.272 429.817 300.224 432.862 299.605 437.237C298.986 441.611 302.031 445.659 306.406 446.278Z" stroke="#E41165" stroke-width="2"/>
<path d="M347.992 452.16C352.366 452.779 356.414 449.734 357.033 445.359C357.652 440.985 354.607 436.937 350.232 436.318C345.858 435.699 341.81 438.744 341.191 443.119C340.572 447.493 343.617 451.541 347.992 452.16Z" stroke="#E41165" stroke-width="2"/>
<path d="M389.578 458.042C393.952 458.661 398 455.616 398.619 451.242C399.238 446.867 396.193 442.819 391.818 442.2C387.444 441.581 383.396 444.626 382.777 449.001C382.158 453.375 385.203 457.424 389.578 458.042Z" stroke="#E41165" stroke-width="2"/>
<path d="M280.291 480.962C284.665 481.581 288.713 478.536 289.332 474.161C289.951 469.787 286.906 465.739 282.531 465.12C278.157 464.501 274.109 467.546 273.49 471.921C272.871 476.295 275.916 480.343 280.291 480.962Z" stroke="#E41165" stroke-width="2"/>
<path d="M321.877 486.844C326.251 487.463 330.299 484.418 330.918 480.043C331.537 475.669 328.492 471.62 324.117 471.002C319.743 470.383 315.695 473.428 315.076 477.803C314.457 482.177 317.502 486.225 321.877 486.844Z" stroke="#E41165" stroke-width="2"/>
<path d="M363.463 492.726C367.837 493.345 371.885 490.3 372.504 485.925C373.123 481.551 370.078 477.503 365.703 476.884C361.329 476.265 357.281 479.31 356.662 483.685C356.043 488.059 359.088 492.107 363.463 492.726Z" stroke="#E41165" stroke-width="2"/>
<path d="M255.167 515.787C259.541 516.406 263.589 513.361 264.208 508.986C264.827 504.612 261.782 500.564 257.407 499.945C253.033 499.326 248.985 502.371 248.366 506.746C247.747 511.12 250.792 515.168 255.167 515.787Z" stroke="#E41165" stroke-width="2"/>
<path d="M296.753 521.669C301.127 522.288 305.175 519.243 305.794 514.868C306.413 510.494 303.368 506.446 298.993 505.827C294.619 505.208 290.571 508.253 289.952 512.628C289.333 517.002 292.378 521.05 296.753 521.669Z" stroke="#E41165" stroke-width="2"/>
<path d="M338.339 527.551C342.713 528.17 346.761 525.125 347.38 520.75C347.999 516.376 344.954 512.328 340.579 511.709C336.205 511.09 332.157 514.135 331.538 518.51C330.919 522.884 333.964 526.932 338.339 527.551Z" stroke="#E41165" stroke-width="2"/>
<path d="M229.052 550.471C233.426 551.09 237.474 548.045 238.093 543.67C238.712 539.295 235.667 535.247 231.292 534.629C226.918 534.01 222.87 537.055 222.251 541.429C221.632 545.804 224.677 549.852 229.052 550.471Z" stroke="#E41165" stroke-width="2"/>
<path d="M270.638 556.353C275.012 556.972 279.06 553.927 279.679 549.552C280.298 545.178 277.253 541.13 272.878 540.511C268.504 539.892 264.456 542.937 263.837 547.312C263.218 551.686 266.263 555.734 270.638 556.353Z" stroke="#E41165" stroke-width="2"/>
<path d="M312.224 562.235C316.598 562.854 320.646 559.809 321.265 555.434C321.884 551.06 318.839 547.012 314.464 546.393C310.09 545.774 306.042 548.819 305.423 553.194C304.804 557.568 307.849 561.616 312.224 562.235Z" stroke="#E41165" stroke-width="2"/>
<path d="M472.482 154.8C472.482 235.323 407.205 300.6 326.682 300.6C246.159 300.6 180.882 235.323 180.882 154.8C180.882 74.2769 246.159 9 326.682 9C407.205 9 472.482 74.2769 472.482 154.8Z" fill="white" stroke="#222222" stroke-width="18"/>
<path d="M447.282 154.8C447.282 221.406 393.288 275.4 326.682 275.4C260.077 275.4 206.082 221.406 206.082 154.8C206.082 88.1944 260.077 34.2 326.682 34.2C393.288 34.2 447.282 88.1944 447.282 154.8Z" fill="white" stroke="#222222" stroke-width="18"/>
<path d="M329.382 212.4C338.826 212.4 346.482 198.297 346.482 180.9C346.482 163.503 338.826 149.4 329.382 149.4C319.938 149.4 312.282 163.503 312.282 180.9C312.282 198.297 319.938 212.4 329.382 212.4Z" fill="#222222"/>
<path d="M403.182 212.4C412.626 212.4 420.282 198.297 420.282 180.9C420.282 163.503 412.626 149.4 403.182 149.4C393.738 149.4 386.082 163.503 386.082 180.9C386.082 198.297 393.738 212.4 403.182 212.4Z" fill="#222222"/>
<path d="M181.782 102.6C177.797 115.749 173.403 125.199 172.782 149.4C273.582 58.5001 401.382 78.3 480.582 144C480.278 126.145 476.868 119.345 470.682 99.9C387.882 42.3002 273.582 37.8002 181.782 102.6Z" fill="#8830D1" stroke="#8830D1" stroke-width="1.8"/>
<path d="M290.682 294.387C369.982 344.156 399.475 383.619 433.782 466.2" stroke="#222222" stroke-width="10.8" stroke-linecap="square"/>
<path d="M72.8361 61.3217C70.3783 60.953 68.6847 58.6618 69.0533 56.204C69.4219 53.7462 71.7132 52.0526 74.171 52.4212C76.6288 52.7898 78.3224 55.0811 77.9538 57.5389C77.5852 59.9966 75.2939 61.6903 72.8361 61.3217Z" fill="#222222"/>
<path d="M96.9569 70.3995C94.4991 70.0309 92.8055 67.7397 93.1741 65.2819C93.5427 62.8241 95.834 61.1305 98.2918 61.4991C100.75 61.8677 102.443 64.1589 102.075 66.6167C101.706 69.0745 99.4147 70.7681 96.9569 70.3995Z" fill="#222222"/>
<path d="M63.1347 65.3275C60.6769 64.9589 58.9833 62.6676 59.3519 60.2099C59.7205 57.7521 62.0118 56.0584 64.4696 56.4271C66.9274 56.7957 68.621 59.0869 68.2524 61.5447C67.8838 64.0025 65.5925 65.6961 63.1347 65.3275Z" fill="#222222"/>
<path d="M54.4124 74.9403C51.9546 74.5717 50.261 72.2804 50.6296 69.8226C50.9982 67.3648 53.2895 65.6712 55.7473 66.0398C58.2051 66.4085 59.8987 68.6997 59.5301 71.1575C59.1615 73.6153 56.8702 75.3089 54.4124 74.9403Z" fill="#222222"/>
<path d="M50.7636 87.1329C48.3058 86.7643 46.6122 84.4731 46.9808 82.0153C47.3494 79.5575 49.6407 77.8639 52.0985 78.2325C54.5563 78.6011 56.2499 80.8923 55.8813 83.3501C55.5127 85.8079 53.2214 87.5015 50.7636 87.1329Z" fill="#222222"/>
<path d="M89.2582 97.457C114.785 135.479 171.236 178.741 179.332 176.491" stroke="#222222" stroke-width="10.8"/>
<path d="M74.9726 101.685C64.1583 100.063 56.7064 89.9816 58.3283 79.1673C59.9502 68.353 70.0317 60.9011 80.846 62.523C91.6603 64.1449 99.1122 74.2264 97.4903 85.0407C95.8684 95.855 85.7869 103.307 74.9726 101.685Z" fill="#222222"/>
<path d="M597.583 61.2C600.068 61.2 602.083 59.1852 602.083 56.7C602.083 54.2147 600.068 52.2 597.583 52.2C595.098 52.2 593.083 54.2147 593.083 56.7C593.083 59.1852 595.098 61.2 597.583 61.2Z" fill="#222222"/>
<path d="M572.383 66.5999C574.868 66.5999 576.883 64.5851 576.883 62.0999C576.883 59.6146 574.868 57.5999 572.383 57.5999C569.898 57.5999 567.883 59.6146 567.883 62.0999C567.883 64.5851 569.898 66.5999 572.383 66.5999Z" fill="#222222"/>
<path d="M606.583 66.5999C609.068 66.5999 611.083 64.5851 611.083 62.0999C611.083 59.6146 609.068 57.5999 606.583 57.5999C604.098 57.5999 602.083 59.6146 602.083 62.0999C602.083 64.5851 604.098 66.5999 606.583 66.5999Z" fill="#222222"/>
<path d="M613.783 77.3999C616.268 77.3999 618.283 75.3852 618.283 72.8999C618.283 70.4146 616.268 68.3999 613.783 68.3999C611.298 68.3999 609.283 70.4146 609.283 72.8999C609.283 75.3852 611.298 77.3999 613.783 77.3999Z" fill="#222222"/>
<path d="M615.583 90C618.068 90 620.083 87.9853 620.083 85.5C620.083 83.0147 618.068 81 615.583 81C613.098 81 611.083 83.0147 611.083 85.5C611.083 87.9853 613.098 90 615.583 90Z" fill="#222222"/>
<path d="M575.983 94.5C545.099 128.315 482.856 162.726 475.183 159.3" stroke="#222222" stroke-width="10.8"/>
<path d="M589.483 100.8C600.418 100.8 609.283 91.9352 609.283 81C609.283 70.0647 600.418 61.2 589.483 61.2C578.548 61.2 569.683 70.0647 569.683 81C569.683 91.9352 578.548 100.8 589.483 100.8Z" fill="#222222"/>
<path d="M318.218 316.949L309.545 299.193C306.49 294.179 298.707 290.828 287.42 295.178C276.132 299.528 229.809 320.477 229.809 320.477C210.109 328.764 183.938 347.153 183.938 347.153C183.938 347.153 182.494 347.267 168.494 335.695C154.495 324.122 137.089 329.606 112.868 349.311C100.955 359.911 95.145 362.21 86.5 376C90.5 397.5 102.5 420 102.5 420C102.5 420 113.327 391.92 125.604 363.288C137.88 334.656 159.825 336.38 174.096 351.388C188.367 366.397 187.552 356.088 191.796 354.6C197.968 350.272 202.248 354.812 209.768 361.248C218.776 368.719 227.841 368.255 254.378 355.419L300.883 336.76C313.812 330.752 319.654 326.989 318.218 316.949Z" fill="#222222" stroke="#222222" stroke-width="1.8"/>
<path d="M520.183 472.5H432.883C432.883 472.5 453.796 458.065 469.783 450.9C485.769 443.734 495.765 442.947 507.583 451.8C515.157 457.473 518.431 463.213 520.183 472.5Z" fill="#111111" stroke="#111111" stroke-width="1.8"/>
<defs>
<filter id="filter0_i_89_19908" x="81" y="155.75" width="360.75" height="360.75" filterUnits="userSpaceOnUse" color-interpolation-filters="sRGB">
<feFlood flood-opacity="0" result="BackgroundImageFix"/>
<feBlend mode="normal" in="SourceGraphic" in2="BackgroundImageFix" result="shape"/>
<feColorMatrix in="SourceAlpha" type="matrix" values="0 0 0 0 0 0 0 0 0 0 0 0 0 0 0 0 0 0 127 0" result="hardAlpha"/>
<feOffset/>
<feGaussianBlur stdDeviation="4"/>
<feComposite in2="hardAlpha" operator="arithmetic" k2="-1" k3="1"/>
<feColorMatrix type="matrix" values="0 0 0 0 0.819608 0 0 0 0 0.192157 0 0 0 0 0.4 0 0 0 0.15 0"/>
<feBlend mode="normal" in2="shape" result="effect1_innerShadow_89_19908"/>
</filter>
<linearGradient id="paint0_linear_89_19908" x1="303.5" y1="353.5" x2="178" y2="561" gradientUnits="userSpaceOnUse">
<stop stop-color="#F4C800"/>
<stop offset="1" stop-color="#FF9E2C"/>
</linearGradient>
</defs>
</svg>
